# xmcd
#
# Track frame offsets: 
#        150
#        16062
#        37490
#        53420
#        69795
#        86917
#        105840
#        122605
#        138645
#        156187
#        173825
#        189565
#        207350
#        227665
#        243802
#        261652
#        277837
#        305947
#
# Disc length: 4456 seconds
#
# Revision: 1
# Processed by: cddbd v1.5.2PL0 Copyright (c) Steve Scherf et al.
# Submitted via: ExactAudioCopy v1.0b3
#
DISCID=f8116612
DTITLE=Orchestral Manoeuvres In The Dark - The Best Of OMD
DYEAR=1988
DGENRE=New Romantic
TTITLE0=Electricity
TTITLE1=Messages
TTITLE2=Enola Gay
TTITLE3=Souvenir
TTITLE4=Joan Of Arc
TTITLE5=Maid Of Orleans
TTITLE6=Telegraph
TTITLE7=Tesla Girls
TTITLE8=Locomotion
TTITLE9=Talking Loud And Clear
TTITLE10=So In Love
TTITLE11=Secret
TTITLE12=If You Leave
TTITLE13=Forever Live And Die
TTITLE14=Dreaming
TTITLE15=Genetic Engineering
TTITLE16=We Love You [12" Version]
TTITLE17=La Femme Accident [12" Version]
EXTD=
EXTT0=
EXTT1=
EXTT2=
EXTT3=
EXTT4=
EXTT5=
EXTT6=
EXTT7=
EXTT8=
EXTT9=
EXTT10=
EXTT11=
EXTT12=
EXTT13=
EXTT14=
EXTT15=
EXTT16=
EXTT17=
PLAYORDER=
